<svg xmlns="http://www.w3.org/2000/svg" width="1200" height="630" viewBox="0 0 1200 630"><defs><linearGradient id="bg" x1="0" y1="0" x2="1" y2="1"><stop stop-color="#07111f"/><stop offset=".6" stop-color="#0d2034"/><stop offset="1" stop-color="#081521"/></linearGradient><linearGradient id="line"><stop stop-color="#43d7d1"/><stop offset="1" stop-color="#5a91ff"/></linearGradient><radialGradient id="glow"><stop stop-color="#43d7d1" stop-opacity=".25"/><stop offset="1" stop-color="#43d7d1" stop-opacity="0"/></radialGradient></defs><rect width="1200" height="630" rx="28" fill="url(#bg)"/><circle cx="1030" cy="80" r="340" fill="url(#glow)"/><g opacity=".16" stroke="#8ccbd2"><path d="M0 490H1200M0 400H1200M0 310H1200M0 220H1200"/><path d="M180 0V630M390 0V630M600 0V630M810 0V630M1020 0V630"/></g><text x="88" y="112" fill="#69c8da" font-family="Arial,sans-serif" font-size="23" font-weight="700" letter-spacing="7">GLOBAL MARKET SENTIMENT</text><text x="82" y="235" fill="#f4f8fb" font-family="Arial,'PingFang SC','Microsoft YaHei',sans-serif" font-size="76" font-weight="700">全球市场情绪</text><text x="86" y="302" fill="#9cafc2" font-family="Arial,'PingFang SC','Microsoft YaHei',sans-serif" font-size="30">五大市场恐慌压力 · 历史分位 · 构成逻辑</text><path d="M88 460C180 420 230 470 315 405S480 470 570 360S735 415 825 300S985 360 1110 215" fill="none" stroke="url(#line)" stroke-width="8" stroke-linecap="round"/><g font-family="Arial,'PingFang SC','Microsoft YaHei',sans-serif" font-size="24" fill="#dce8f1"><text x="88" y="560">A股</text><text x="190" y="560">港股</text><text x="292" y="560">美股</text><text x="394" y="560">日股</text><text x="496" y="560">韩股</text></g><g transform="translate(925 400)"><circle cx="92" cy="92" r="78" fill="none" stroke="#26394c" stroke-width="17"/><path d="M92 14a78 78 0 1 1-61 127" fill="none" stroke="#43d7d1" stroke-width="17" stroke-linecap="round"/><text x="92" y="101" text-anchor="middle" fill="#fff" font-family="Arial,sans-serif" font-size="44" font-weight="700">LIVE</text><text x="92" y="130" text-anchor="middle" fill="#8da2b7" font-family="Arial,sans-serif" font-size="16">5 MIN</text></g></svg>
